<?xml version="1.0" encoding="utf-8"?>
<!-- Generator: Adobe Illustrator 21.0.2, SVG Export Plug-In . SVG Version: 6.00 Build 0)  -->
<svg version="1.1" baseProfile="tiny" id="lofo_40X120px_xA0_Image_1_"
	 xmlns="http://www.w3.org/2000/svg" xmlns:xlink="http://www.w3.org/1999/xlink" x="0px" y="0px" viewBox="0 0 120 40"
	 xml:space="preserve">
<g>
	<path fill="#FFFFFF" d="M68.5,34.5v-3.2c0-0.8-0.4-1.3-1.3-1.3c-0.4,0-0.7,0.2-0.7,0.2s0.1,0.2,0.1,0.5v3.7h-1.5v-3.2
		c0-0.8-0.4-1.3-1.3-1.3c-0.4,0-0.6,0.1-0.6,0.1v4.3h-1.6v-5.2c0.7-0.4,2.2-1,4.1-0.2c0.3-0.2,0.9-0.4,1.5-0.4
		c1.8,0,2.8,0.9,2.8,2.4v3.3h-1.5C68.5,34.2,68.5,34.5,68.5,34.5z M76.6,28.7c1.2,0,3.2,0.4,3.2,3c0,1.6-1.1,2.9-2.8,2.9
		c-0.5,0-1-0.1-1.2-0.2v2.3h-1.6V29C74.9,28.8,75.7,28.7,76.6,28.7 M76.6,30c-0.3,0-0.6,0-0.8,0.1v3c0.2,0.1,0.6,0.3,1.1,0.3
		c0.8,0,1.3-0.7,1.3-1.6C78.2,30.4,77.3,30,76.6,30 M94.9,30.1c-0.2,0-0.5-0.1-0.9-0.1c-0.7,0-1.5,0.6-1.5,1.7
		c0,1.2,0.7,1.6,1.3,1.6c0.5,0,0.9-0.3,1.1-0.6V30.1z M95,33.9c-0.3,0.4-0.8,0.6-1.5,0.6c-1,0-2.6-0.7-2.6-2.8c0-1.8,1.3-3,3.2-3
		c0.9,0,1.9,0.2,2.4,0.4v5.3h-1.4L95,33.9z M80.3,31.6c0,1.9,1.1,2.9,3.1,2.9c0.9,0,1.5-0.2,2-0.5v-1c-0.4,0.1-1.1,0.3-2,0.3
		c-1,0-1.5-0.4-1.6-1.2h3.7c0-0.1,0-0.4,0-0.6c0-1.6-1-2.8-2.6-2.8C81.4,28.7,80.3,29.8,80.3,31.6 M81.9,31c0.1-0.7,0.4-1,1.2-1
		c0.7,0,1.1,0.5,1.2,1H81.9z M73.6,30.8h-3v1.4h3V30.8z M89.1,32.8c0,0.1,0,0.2-0.1,0.3s-0.1,0.1-0.2,0.2c-0.1,0.1-0.3,0.1-0.4,0.1
		c-0.2,0-0.3,0-0.5,0s-0.5,0-0.7-0.1c-0.3,0-0.5-0.1-0.8-0.2v1.1c0.2,0.1,0.5,0.2,0.7,0.3c0.3,0.1,0.6,0.2,1,0.2s0.7,0,1-0.1
		s0.6-0.2,0.8-0.3c0.2-0.2,0.4-0.3,0.5-0.6c0.1-0.2,0.2-0.5,0.2-0.8s-0.1-0.5-0.2-0.7s-0.2-0.3-0.4-0.5c-0.2-0.1-0.3-0.2-0.5-0.3
		c-0.2-0.1-0.4-0.1-0.6-0.2c-0.1,0-0.3-0.1-0.4-0.1S88.2,31,88.1,31c-0.1-0.1-0.2-0.1-0.3-0.2c-0.1-0.1-0.1-0.2-0.1-0.3
		c0-0.1,0-0.1,0-0.2s0.1-0.1,0.2-0.2c0.1,0,0.2-0.1,0.3-0.1c0.1,0,0.3,0,0.4,0s0.3,0,0.4,0s0.3,0,0.4,0.1c0.1,0,0.3,0.1,0.4,0.1
		s0.3,0.1,0.4,0.1v-1.2c-0.3-0.1-0.5-0.2-0.9-0.2c-0.3-0.1-0.6-0.1-1-0.1c-0.3,0-0.6,0-0.8,0.1c-0.3,0.1-0.5,0.2-0.7,0.4
		c-0.2,0.1-0.3,0.4-0.4,0.6s-0.2,0.5-0.2,0.8s0.1,0.5,0.1,0.6c0.1,0.2,0.2,0.3,0.4,0.4c0.1,0.1,0.3,0.2,0.5,0.3
		c0.2,0.1,0.4,0.1,0.6,0.2c0.2,0,0.3,0.1,0.5,0.1c0.1,0,0.3,0.1,0.4,0.1c0.1,0.1,0.2,0.1,0.3,0.2C89.1,32.6,89.1,32.7,89.1,32.8"/>
	<path fill="#526123" d="M70.7,16.4c2.9,0.5,5-2.7,5-2.7c2.1,3.3,3.6,0.7,3.6,0.7s-1.5,2.6-6.6,2.5L70.7,16.4z"/>
	<path fill="#5FA511" d="M81,10.9c0,0-3.1,7.4-10,5.6c0,0,11.5,3.5,15.7-2.8L81,10.9z"/>
	<path fill="#FFFFFF" d="M83.3,17v6.1c0,0.9-0.7,1.7-1.7,1.7h-5.9c-0.9,0-1.7-0.7-1.7-1.7V8.8c0-0.9,0.7-1.7,1.7-1.7h5.9
		c0.9,0,1.7,0.7,1.7,1.7v2.6l-1.1-0.5V8.6h-7v12.2h7v-3.4C82.6,17.3,83,17.2,83.3,17 M76.2,22.9c0,0.1,0,0.1,0.1,0.1h0.6
		c0.1,0,0.1,0,0.1-0.1v-0.6c0-0.1,0-0.1-0.1-0.1h-0.6c-0.1,0-0.1,0-0.1,0.1V22.9z M80.4,22.9c0,0.1,0,0.1,0.1,0.1h0.7
		c0.1,0,0.1,0,0.1-0.1v-0.6c0-0.1,0-0.1-0.1-0.1h-0.6c-0.1,0-0.1,0-0.1,0.1v0.6H80.4z M78.1,21.8c-0.1,0-0.2,0.1-0.2,0.2v1.1
		c0,0.1,0.1,0.2,0.2,0.2h1.1c0.1,0,0.2-0.1,0.2-0.2V22c0-0.1-0.1-0.2-0.2-0.2H78.1z"/>
	<g>
		<path fill="#FFFFFF" d="M47.3,20.8c0,7.5-6.1,13.6-13.7,13.6c-7.5,0-13.6-6.1-13.6-13.6S26.1,7.2,33.6,7.2
			C41.2,7.2,47.3,13.3,47.3,20.8"/>
		<path fill="#E60000" d="M33.8,28.4c-3.7,0-7.6-3.2-7.7-8.3c0-3.4,1.8-6.7,4.2-8.6c2.2-1.9,5.4-3.1,8.2-3.1c0.4,0,0.7,0,1,0.1
			C37,9,35,11.3,35.1,13.9c0,0.1,0,0.2,0,0.2c4.1,1,6,3.5,6,7C41.1,24.6,38.4,28.4,33.8,28.4"/>
	</g>
	<line fill="#FFFFFF" stroke="#FFFFFF" stroke-miterlimit="10" x1="54.5" y1="7.2" x2="54.5" y2="34.5"/>
</g>
</svg>
