<?xml version="1.0" encoding="UTF-8" standalone="no"?>
<svg
   xmlns:dc="http://purl.org/dc/elements/1.1/"
   xmlns:cc="http://creativecommons.org/ns#"
   xmlns:rdf="http://www.w3.org/1999/02/22-rdf-syntax-ns#"
   xmlns:svg="http://www.w3.org/2000/svg"
   xmlns="http://www.w3.org/2000/svg"
   xmlns:sodipodi="http://sodipodi.sourceforge.net/DTD/sodipodi-0.dtd"
   xmlns:inkscape="http://www.inkscape.org/namespaces/inkscape"
   width="240.07819"
   height="53.807453"
   viewBox="0 0 63.520685 14.236556"
   version="1.1"
   id="svg16"
   inkscape:version="1.0.1 (c497b03c, 2020-09-10)"
   sodipodi:docname="safaricom.svg">
  <defs
     id="defs10" />
  <sodipodi:namedview
     id="base"
     pagecolor="#00ffff"
     bordercolor="#666666"
     borderopacity="1.0"
     inkscape:pageopacity="0"
     inkscape:pageshadow="2"
     inkscape:zoom="3.6532971"
     inkscape:cx="124.01331"
     inkscape:cy="54.205453"
     inkscape:document-units="px"
     inkscape:current-layer="layer1"
     inkscape:document-rotation="0"
     showgrid="false"
     units="px"
     lock-margins="true"
     fit-margin-top="0.5"
     fit-margin-left="0.5"
     fit-margin-right="0.5"
     fit-margin-bottom="0.5"
     inkscape:window-width="1440"
     inkscape:window-height="900"
     inkscape:window-x="0"
     inkscape:window-y="0"
     inkscape:window-maximized="0" />
  <metadata
     id="metadata13">
    <rdf:RDF>
      <cc:Work
         rdf:about="">
        <dc:format>image/svg+xml</dc:format>
        <dc:type
           rdf:resource="http://purl.org/dc/dcmitype/StillImage" />
        <dc:title></dc:title>
      </cc:Work>
    </rdf:RDF>
  </metadata>
  <g
     inkscape:label="Layer 1"
     inkscape:groupmode="layer"
     id="layer1"
     transform="translate(-33.251561,-209.84006)">
    <g
       id="g1132"
       transform="translate(-91.706173,1.9537043)">
      <path
         style="fill:#de1e23;fill-opacity:1;fill-rule:nonzero;stroke:none;stroke-width:0.352778"
         d="m 146.99258,208.71885 c -0.97152,-1.68121 -6.63112,-0.23151 -12.63937,3.24114 -6.00963,3.47128 -10.09275,7.64812 -9.11986,9.3307 0.8351,1.44556 5.1332,0.57464 10.13961,-1.90031 0.22324,-0.12265 0.20808,-0.38723 -0.0841,-0.29215 -3.08543,1.13688 -5.6596,1.20716 -6.3252,0 -0.88608,-1.60128 1.91823,-4.84518 6.26181,-7.24297 4.34358,-2.40054 8.58242,-3.04822 9.4685,-1.44694 0.40376,0.73312 0.0345,1.81074 -0.90124,2.99448 l -0.0124,0.0179 c -0.34727,0.42857 -0.0951,0.55811 0.15296,0.35002 2.39503,-2.12217 3.64353,-4.0404 3.05925,-5.05188"
         id="path426" />
      <path
         style="fill:#3aa335;fill-opacity:1;fill-rule:nonzero;stroke:none;stroke-width:0.352778"
         d="m 137.98159,219.79276 c -0.53469,-0.14469 -0.9729,-0.34037 -1.30776,-0.58704 l 0.60633,-1.36977 c 0.35829,0.226 0.73863,0.39963 1.13964,0.51952 0.40239,0.11989 0.80477,0.18052 1.20992,0.18052 0.41203,0 0.72898,-0.0579 0.94947,-0.16949 0.21773,-0.11438 0.32797,-0.27424 0.32797,-0.47956 0,-0.18604 -0.0992,-0.33762 -0.29766,-0.46027 -0.19981,-0.11851 -0.57464,-0.23702 -1.12447,-0.35278 -0.69316,-0.13918 -1.23197,-0.30868 -1.61645,-0.51125 -0.38585,-0.20257 -0.65319,-0.44097 -0.81028,-0.7152 -0.15434,-0.27561 -0.23013,-0.60772 -0.23013,-1.00046 0,-0.44648 0.12678,-0.84887 0.38171,-1.20991 0.25494,-0.36105 0.61048,-0.64217 1.07074,-0.84474 0.46026,-0.20257 0.98392,-0.30317 1.57647,-0.30317 0.52917,0 1.0418,0.073 1.53927,0.22049 0.49885,0.14745 0.88746,0.34175 1.16996,0.58291 l -0.59807,1.36977 c -0.32246,-0.22738 -0.66284,-0.39963 -1.01975,-0.5209 -0.35691,-0.11989 -0.71382,-0.18053 -1.07073,-0.18053 -0.35003,0 -0.63252,0.0675 -0.84474,0.2012 -0.2136,0.13367 -0.31971,0.31557 -0.31971,0.54157 0,0.12402 0.0372,0.226 0.113,0.30868 0.0758,0.0813 0.21773,0.16399 0.42168,0.24253 0.20671,0.0785 0.51539,0.16261 0.92742,0.25219 0.66697,0.14469 1.19063,0.31832 1.57234,0.51951 0.38034,0.20258 0.65044,0.44098 0.80753,0.71107 0.15848,0.27148 0.2384,0.59532 0.2384,0.97428 0,0.71382 -0.27974,1.27744 -0.83509,1.68396 -0.55672,0.40928 -1.33945,0.61323 -2.34955,0.61323 -0.54846,0 -1.09279,-0.073 -1.62746,-0.21636"
         id="path428" />
      <path
         style="fill:#3aa335;fill-opacity:1;fill-rule:nonzero;stroke:none;stroke-width:0.352778"
         d="m 149.28425,214.683 v 5.23241 h -1.83554 v -0.70969 c -0.14883,0.24667 -0.36932,0.44097 -0.65733,0.58153 -0.28939,0.14056 -0.60634,0.21222 -0.94809,0.21222 -0.44786,0 -0.84474,-0.11024 -1.19613,-0.33073 -0.34865,-0.22049 -0.62288,-0.5333 -0.81994,-0.94258 -0.1943,-0.40652 -0.29352,-0.88057 -0.29352,-1.41524 0,-0.54295 0.1006,-1.02389 0.30041,-1.44281 0.19844,-0.4203 0.47267,-0.74552 0.82269,-0.97978 0.3514,-0.23289 0.74552,-0.35003 1.18649,-0.35003 0.34175,0 0.65733,0.073 0.9412,0.22187 0.28663,0.14745 0.50712,0.34589 0.66422,0.59256 V 214.683 Z m -2.10288,3.58565 c 0.17914,-0.22737 0.26734,-0.55259 0.26734,-0.97841 0,-0.43407 -0.0882,-0.7648 -0.26734,-0.99494 -0.17777,-0.23013 -0.43271,-0.34589 -0.76206,-0.34589 -0.32246,0 -0.57602,0.1199 -0.76205,0.35554 -0.18604,0.23702 -0.27837,0.57189 -0.27837,1.00597 0,0.41617 0.0882,0.73863 0.26734,0.96325 0.17915,0.22186 0.43684,0.33348 0.77308,0.33348 0.32935,0 0.58429,-0.113 0.76206,-0.339"
         id="path430" />
      <path
         style="fill:#3aa335;fill-opacity:1;fill-rule:nonzero;stroke:none;stroke-width:0.352778"
         d="m 150.50382,214.683 v -0.1447 c 0,-0.70831 0.18603,-1.25952 0.55121,-1.65778 0.36794,-0.39825 0.90262,-0.59944 1.60266,-0.59944 0.39963,0 0.72347,0.0496 0.96876,0.14469 v 1.43316 c -0.19981,-0.0482 -0.36518,-0.073 -0.49333,-0.073 -0.22049,0 -0.40239,0.0634 -0.54709,0.19155 -0.14331,0.12678 -0.21635,0.31971 -0.21635,0.58154 v 0.12402 h 1.01975 v 1.36977 h -1.01975 v 3.86264 h -1.86586 V 214.683"
         id="path432" />
      <path
         style="fill:#3aa335;fill-opacity:1;fill-rule:nonzero;stroke:none;stroke-width:0.352778"
         d="m 159.70498,214.683 v 5.23241 h -1.83417 v -0.70969 c -0.15021,0.24667 -0.36931,0.44097 -0.66008,0.58153 -0.28663,0.14056 -0.60358,0.21222 -0.94671,0.21222 -0.44649,0 -0.84336,-0.11024 -1.19476,-0.33073 -0.35002,-0.22049 -0.62288,-0.5333 -0.81993,-0.94258 -0.19569,-0.40652 -0.29215,-0.88057 -0.29215,-1.41524 0,-0.54295 0.0992,-1.02389 0.29766,-1.44281 0.19843,-0.4203 0.47404,-0.74552 0.82406,-0.97978 0.3514,-0.23289 0.74552,-0.35003 1.18512,-0.35003 0.34313,0 0.6587,0.073 0.94258,0.22187 0.28525,0.14745 0.50711,0.34589 0.66421,0.59256 V 214.683 Z m -2.10151,3.58565 c 0.17914,-0.22737 0.26734,-0.55259 0.26734,-0.97841 0,-0.43407 -0.0882,-0.7648 -0.26734,-0.99494 -0.17777,-0.23013 -0.43133,-0.34589 -0.76206,-0.34589 -0.32246,0 -0.57739,0.1199 -0.76205,0.35554 -0.18604,0.23702 -0.27836,0.57189 -0.27836,1.00597 0,0.41617 0.0896,0.73863 0.26871,0.96325 0.17777,0.22186 0.43546,0.33348 0.7717,0.33348 0.33073,0 0.58429,-0.113 0.76206,-0.339"
         id="path434" />
      <path
         style="fill:#3aa335;fill-opacity:1;fill-rule:nonzero;stroke:none;stroke-width:0.352778"
         d="m 164.69623,214.67197 v 1.7005 c -0.2949,-0.1378 -0.57739,-0.2067 -0.85162,-0.2067 -0.77997,0 -1.16996,0.37482 -1.16996,1.1231 v 2.62654 h -1.85759 v -3.72897 c 0,-0.56224 -0.0275,-1.06385 -0.0813,-1.50482 h 1.7446 l 0.113,0.87643 c 0.12264,-0.32246 0.3197,-0.57051 0.59531,-0.74276 0.27285,-0.1695 0.58015,-0.25631 0.92191,-0.25631 0.25356,0 0.44786,0.0386 0.58566,0.11299"
         id="path436" />
      <path
         style="fill:#3aa335;fill-opacity:1;fill-rule:nonzero;stroke:none;stroke-width:0.352778"
         d="m 165.24745,219.91541 h 1.86449 v -5.23379 h -1.86449 z m 0,0"
         id="path438" />
      <path
         style="fill:#3aa335;fill-opacity:1;fill-rule:nonzero;stroke:none;stroke-width:0.352778"
         d="m 168.74077,219.27738 c -0.50022,-0.48094 -0.75102,-1.1355 -0.75102,-1.96646 0,-0.54984 0.11988,-1.03491 0.3638,-1.45246 0.24529,-0.41892 0.58566,-0.74413 1.02663,-0.97427 0.43822,-0.23013 0.94809,-0.34451 1.52412,-0.34451 0.38309,0 0.76205,0.0551 1.13412,0.16812 0.36931,0.11438 0.66422,0.26734 0.8847,0.46027 l -0.47404,1.28571 c -0.18466,-0.15021 -0.40239,-0.2701 -0.64768,-0.35967 -0.24805,-0.0896 -0.48507,-0.13367 -0.71245,-0.13367 -0.38447,0 -0.67937,0.11024 -0.88608,0.32935 -0.20532,0.21911 -0.30868,0.54708 -0.30868,0.97841 0,0.44097 0.10336,0.7717 0.30868,0.99632 0.20671,0.22186 0.50575,0.33349 0.89711,0.33349 0.22737,0 0.46164,-0.0441 0.70555,-0.13505 0.24392,-0.0882 0.45889,-0.20947 0.64355,-0.35967 l 0.47404,1.26642 c -0.226,0.19981 -0.52779,0.35415 -0.89986,0.46439 -0.3762,0.11025 -0.77583,0.16399 -1.20165,0.16399 -0.88608,0 -1.57923,-0.23978 -2.08084,-0.72071"
         id="path440" />
      <path
         style="fill:#3aa335;fill-opacity:1;fill-rule:nonzero;stroke:none;stroke-width:0.352778"
         d="m 174.64429,219.66874 c -0.4327,-0.21911 -0.76619,-0.53606 -1.00045,-0.94809 -0.23427,-0.41203 -0.35003,-0.89572 -0.35003,-1.45245 0,-0.55673 0.11576,-1.04042 0.35003,-1.45245 0.23426,-0.41204 0.56775,-0.72761 1.00045,-0.94672 0.43271,-0.22048 0.9412,-0.33073 1.52549,-0.33073 0.57602,0 1.079,0.11163 1.50757,0.33625 0.42995,0.22186 0.76068,0.53881 0.99357,0.94671 0.23426,0.4079 0.35002,0.89021 0.35002,1.44694 0,0.55673 -0.11576,1.04042 -0.35002,1.44831 -0.23289,0.4079 -0.56362,0.72485 -0.99357,0.94672 -0.42857,0.22324 -0.93155,0.33624 -1.50757,0.33624 -0.58429,0 -1.09278,-0.11024 -1.52549,-0.33073 m 2.53559,-2.40054 c 0,-0.45338 -0.0854,-0.78686 -0.25494,-1.00322 -0.16674,-0.21635 -0.4203,-0.32383 -0.75516,-0.32383 -0.34451,0 -0.6022,0.10748 -0.77446,0.32383 -0.17087,0.21636 -0.25769,0.54984 -0.25769,1.00322 0,0.46026 0.0868,0.79926 0.25769,1.01561 0.17226,0.21635 0.42995,0.32522 0.77446,0.32522 0.67248,0 1.0101,-0.44786 1.0101,-1.34083"
         id="path442" />
      <path
         style="fill:#3aa335;fill-opacity:1;fill-rule:nonzero;stroke:none;stroke-width:0.352778"
         d="m 187.90929,215.09503 c 0.29214,0.37069 0.43684,0.93707 0.43684,1.69912 v 3.12126 h -1.86311 v -3.06889 c 0,-0.31006 -0.0469,-0.5333 -0.14056,-0.66973 -0.0923,-0.1378 -0.24943,-0.2067 -0.46853,-0.2067 -0.26183,0 -0.46303,0.0978 -0.60772,0.28938 -0.14469,0.19293 -0.21635,0.46165 -0.21635,0.81305 v 2.84289 h -1.86449 v -3.06889 c 0,-0.31006 -0.0496,-0.5333 -0.14469,-0.66973 -0.0965,-0.1378 -0.2508,-0.2067 -0.46302,-0.2067 -0.26045,0 -0.46302,0.0978 -0.6022,0.28938 -0.14194,0.19293 -0.21222,0.46165 -0.21222,0.81305 v 2.84289 H 179.896 v -3.72897 c 0,-0.56224 -0.0248,-1.06522 -0.0799,-1.50344 h 1.75149 l 0.0923,0.73174 c 0.15847,-0.2825 0.38033,-0.49885 0.66421,-0.65044 0.28525,-0.14883 0.61323,-0.22462 0.98392,-0.22462 0.74965,0 1.25815,0.31557 1.52411,0.94671 0.18741,-0.28938 0.43408,-0.51814 0.73725,-0.69039 0.30592,-0.17226 0.63803,-0.25632 0.99494,-0.25632 0.60358,0 1.05145,0.18466 1.34497,0.55535"
         id="path444" />
      <path
         style="fill:#3aa335;fill-opacity:1;fill-rule:nonzero;stroke:none;stroke-width:0.352778"
         d="m 165.24745,213.79554 h 1.86449 v -1.67845 h -1.86449 z m 0,0"
         id="path446" />
    </g>
  </g>
</svg>
